<svg width="130" height="24" xmlns="http://www.w3.org/2000/svg" xmlns:xlink="http://www.w3.org/1999/xlink"><defs><path d="M2.884.092L.964 19.921a78.37 78.37 0 0 1 3.813-.325L2.885.092h-.001z" id="a"/><path d="M.528.116l1.89 19.457a81.728 81.728 0 0 1 4.617-.142L7.041.116.528.113v.003z" id="c"/><path d="M0 .092l.01 23.544c4.008-1.753 9.228-3.06 15.135-3.715L17.065.092V.09L0 .092z" id="e"/><path d="M.002.223V.83c.418.075 1.913.511 1.913 1.575v17.04h5.061V.222H.002z" id="g"/><path d="M6.292.223V.83c.612.128 1.942.5 1.403 1.7L.148 19.443h3.987L6.5 14.171h8.361l2.067 5.273h5.244L14.68.224H6.292zm4.668 4l2.964 7.56H7.57l3.39-7.56z" id="i"/><path d="M7.08.222V.83c.61.128 1.942.5 1.402 1.7L.936 19.443h3.987l2.36-5.273h8.362l2.068 5.273h5.249L15.465.222H7.08zm4.667 4l2.964 7.562H8.357l3.39-7.561z" id="k"/><path d="M19.105.223l-5.869 14.095L7.65.223H.538V.83c.821.158 1.743.511 2.164 1.575l6.751 17.04h5.434L22.891.222h-3.786z" id="m"/><path d="M19.474.223l-5.869 14.095L8.02.223H.906V.83c.823.158 1.744.511 2.166 1.575l6.749 17.04h5.435L23.262.222h-3.788z" id="o"/></defs><g fill="none" fill-rule="evenodd"><g transform="translate(14.182)"><mask id="b" fill="#fff"><use xlink:href="#a"/></mask><path fill="#FFD400" mask="url(#b)" d="M-4.946 25.83h15.633V-5.817H-4.946z"/></g><g transform="translate(16.545)"><mask id="d" fill="#fff"><use xlink:href="#c"/></mask><path fill="#66B24C" mask="url(#d)" d="M-5.38 25.482h18.33V-5.796H-5.38z"/></g><g><mask id="f" fill="#fff"><use xlink:href="#e"/></mask><path fill="#004FB6" mask="url(#f)" d="M-5.91 29.545h28.885V-5.819H-5.91z"/></g><g transform="translate(75.636)"><mask id="h" fill="#fff"><use xlink:href="#g"/></mask><path fill="#004FB6" mask="url(#h)" d="M-5.907 25.354h18.792v-31.04H-5.907z"/></g><g transform="translate(29.545)"><mask id="j" fill="#fff"><use xlink:href="#i"/></mask><path fill="#004FB6" mask="url(#j)" d="M-5.763 25.354H28.08v-31.04H-5.763z"/></g><g transform="translate(106.364)"><mask id="l" fill="#fff"><use xlink:href="#k"/></mask><path fill="#004FB6" mask="url(#l)" d="M-4.974 25.354h33.843v-31.04H-4.974z"/></g><g transform="translate(85.09)"><mask id="n" fill="#fff"><use xlink:href="#m"/></mask><path fill="#004FB6" mask="url(#n)" d="M-5.373 25.354H28.8v-31.04H-5.373z"/></g><g transform="translate(49.636)"><mask id="p" fill="#fff"><use xlink:href="#o"/></mask><path fill="#004FB6" mask="url(#p)" d="M-5.003 25.354h34.174v-31.04H-5.003z"/></g></g></svg>