<svg xmlns="http://www.w3.org/2000/svg" width="400" height="15" viewBox="0 0 400 15">
  <g fill="none" fill-rule="evenodd" stroke-width="2">
    <g transform="translate(4 5)">
      <polyline stroke="#444" points="3.058 -3 9 3.083 3 9" transform="rotate(90 6 3)"/>
      <polyline stroke="#BD2624" points="45.058 -3 51 3.083 45 9" transform="rotate(90 48 3)"/>
      <polyline stroke="#4F9F31" points="87.058 -3 93 3.083 87 9" transform="rotate(90 90 3)"/>
      <polyline stroke="#AAA" points="129.058 -3 135 3.083 129 9" transform="rotate(90 132 3)"/>
      <polyline stroke="#44C0FF" points="171.058 -3 177 3.083 171 9" transform="rotate(90 174 3)"/>
    </g>
    <g transform="translate(214 5)">
      <polyline stroke="#444" points="3.058 -3 9 3.083 3 9" transform="rotate(-90 6 3)"/>
      <polyline stroke="#BD2624" points="45.058 -3 51 3.083 45 9" transform="rotate(-90 48 3)"/>
      <polyline stroke="#4F9F31" points="87.058 -3 93 3.083 87 9" transform="rotate(-90 90 3)"/>
      <polyline stroke="#AAA" points="129.058 -3 135 3.083 129 9" transform="rotate(-90 132 3)"/>
      <polyline stroke="#44C0FF" points="171.058 -3 177 3.083 171 9" transform="rotate(-90 174 3)"/>
    </g>
  </g>
</svg>
