<svg xmlns="http://www.w3.org/2000/svg" xmlns:xlink="http://www.w3.org/1999/xlink" width="96" height="24" viewBox="0 0 96 24">
  <defs>
    <rect id="edit-a" width="24" height="24"/>
    <rect id="edit-c" width="24" height="24" x="24"/>
    <rect id="edit-e" width="24" height="24" x="48"/>
    <rect id="edit-g" width="24" height="24" x="72"/>
  </defs>
  <g fill="none" fill-rule="evenodd">
    <mask id="edit-b" fill="#fff">
      <use xlink:href="#edit-a"/>
    </mask>
    <use fill="#000" opacity="0" xlink:href="#edit-a"/>
    <g mask="url(#edit-b)">
      <path fill="#004FB6" d="M15.7394286,3.59314286 C16.0868571,3.24571429 16.0868571,2.68685714 15.7394286,2.33942857 L13.6605714,0.260571429 C13.3131429,-0.0868571429 12.7542857,-0.0868571429 12.4068571,0.260571429 L10.7805714,1.88685714 L14.1131429,5.21942857 L15.7394286,3.59314286 Z M-3.55271368e-15,12.6674286 L-3.55271368e-15,16 L3.33257143,16 L13.1622857,6.17028571 L9.82971429,2.83771429 L-3.55271368e-15,12.6674286 Z" transform="translate(4 5)"/>
    </g>
    <mask id="edit-d" fill="#fff">
      <use xlink:href="#edit-c"/>
    </mask>
    <use fill="#000" opacity="0" xlink:href="#edit-c"/>
    <g fill="#FFF" mask="url(#edit-d)">
      <path d="M15.7394286,3.59314286 C16.0868571,3.24571429 16.0868571,2.68685714 15.7394286,2.33942857 L13.6605714,0.260571429 C13.3131429,-0.0868571429 12.7542857,-0.0868571429 12.4068571,0.260571429 L10.7805714,1.88685714 L14.1131429,5.21942857 L15.7394286,3.59314286 Z M-3.55271368e-15,12.6674286 L-3.55271368e-15,16 L3.33257143,16 L13.1622857,6.17028571 L9.82971429,2.83771429 L-3.55271368e-15,12.6674286 Z" transform="translate(28 5)"/>
    </g>
    <mask id="edit-f" fill="#fff">
      <use xlink:href="#edit-e"/>
    </mask>
    <use fill="#000" opacity="0" xlink:href="#edit-e"/>
    <g fill="#CCC" mask="url(#edit-f)">
      <path d="M15.7394286,3.59314286 C16.0868571,3.24571429 16.0868571,2.68685714 15.7394286,2.33942857 L13.6605714,0.260571429 C13.3131429,-0.0868571429 12.7542857,-0.0868571429 12.4068571,0.260571429 L10.7805714,1.88685714 L14.1131429,5.21942857 L15.7394286,3.59314286 Z M-3.55271368e-15,12.6674286 L-3.55271368e-15,16 L3.33257143,16 L13.1622857,6.17028571 L9.82971429,2.83771429 L-3.55271368e-15,12.6674286 Z" transform="translate(52 5)"/>
    </g>
    <mask id="edit-h" fill="#fff">
      <use xlink:href="#edit-g"/>
    </mask>
    <use fill="#000" opacity="0" xlink:href="#edit-g"/>
    <g fill="#5C596D" mask="url(#edit-h)">
      <path d="M15.7394286,3.59314286 C16.0868571,3.24571429 16.0868571,2.68685714 15.7394286,2.33942857 L13.6605714,0.260571429 C13.3131429,-0.0868571429 12.7542857,-0.0868571429 12.4068571,0.260571429 L10.7805714,1.88685714 L14.1131429,5.21942857 L15.7394286,3.59314286 Z M-3.55271368e-15,12.6674286 L-3.55271368e-15,16 L3.33257143,16 L13.1622857,6.17028571 L9.82971429,2.83771429 L-3.55271368e-15,12.6674286 Z" transform="translate(76 5)"/>
    </g>
  </g>
</svg>
