<?xml version="1.0" encoding="utf-8"?><!-- Generator: Adobe Illustrator 22.0.0, SVG Export Plug-In . SVG Version: 6.00 Build 0)  --><svg enable-background="new 0 0 128 128" viewBox="0 0 128 128" xmlns="http://www.w3.org/2000/svg"><g><path d="m64 0c-35.3 0-64 28.7-64 64s28.7 64 64 64 64-28.7 64-64-28.7-64-64-64zm-9 24h18v18h-18zm-24 32.1h32.1v-9.1c0-.6.4-1 1-1s1 .4 1 1v9.1h31.9v12.9c0 .6-.4 1-1 1s-1-.4-1-1v-10.9h-29.9v1.8 9.1c0 .6-.4 1-1 1s-1-.4-1-1v-10.9h-30.1v10.9c0 .6-.4 1-1 1s-1-.4-1-1zm10 35.9h-18v-18h18zm32 0h-18v-18h18zm32 0h-18v-18h18z" fill="#ffffff"/></g></svg>