<?xml version="1.0" encoding="utf-8"?><!-- Generator: Adobe Illustrator 21.1.0, SVG Export Plug-In . SVG Version: 6.00 Build 0)  --><svg enable-background="new 0 0 128 128" viewBox="0 0 128 128" xmlns="http://www.w3.org/2000/svg"><g><path d="m64 0c-35.3 0-64 28.7-64 64s28.7 64 64 64 64-28.7 64-64-28.7-64-64-64zm2 115.2c-3.5 0-7.5-1.8-7.5-4.5h15c0 2.8-4 4.5-7.5 4.5zm11.5-7.8c0 .7-.7 1.3-1.5 1.3h-20c-.8 0-1.5-.6-1.5-1.3v-.9c0-.7.7-1.3 1.5-1.3h20c.8 0 1.5.6 1.5 1.3zm0-5c0 .7-.7 1.3-1.5 1.3h-20c-.8 0-1.5-.6-1.5-1.3v-.9c0-.7.7-1.3 1.5-1.3h20c.8 0 1.5.6 1.5 1.3zm0-5.4c0 .8-.7 1.5-1.5 1.5h-20c-.8 0-1.5-.7-1.5-1.5v-1c0-.8.7-1.5 1.5-1.5h20c.8 0 1.5.7 1.5 1.5zm24.5-48.5c-.2 0-.5-.1-.7-.2l-7.4 3.8c-.3 3.9-1.6 7.6-3.7 10.8-4.7 7.5-7 12.8-8.4 17.3l14 2.3c.4-.7 1.2-1.1 2.1-1.1 1.4 0 2.5 1.1 2.5 2.5s-1.1 2.5-2.5 2.5c-1.2 0-2.1-.8-2.4-1.9l-14.2-2.4c-.4 1.4-.6 2.7-.9 4.1-.9 5-2.2 6.2-6.5 6.2-1.8 0-4.8 0-7.9 0s-6.1 0-7.9 0c-4.3 0-5.6-1.2-6.5-6.2-.9-4.7-2.2-9.6-6.1-16.8l-11.1 5.3c.1.2.1.5.1.7 0 1.7-1.3 3-3 3s-3-1.3-3-3 1.3-3 3-3c.7 0 1.3.2 1.8.6l11.3-5.4c-.8-1.5-1.7-3-2.8-4.7-1.8-2.9-3-6.1-3.5-9.5l-18.9-5.1c-.2.2-.5.3-.9.3-.8 0-1.5-.7-1.5-1.5s.7-1.5 1.5-1.5c.6 0 1.1.3 1.3.8l18.2 5c0-.3 0-.6 0-.8 0-4.4 1.3-8.5 3.5-12.1l-10.1-6.3c-.4.3-.9.4-1.4.4-1.4 0-2.5-1.1-2.5-2.5s1.1-2.5 2.5-2.5 2.5 1.1 2.5 2.5v.4l10.2 6.4c3-4 7.2-7.2 12.2-9.1l-.7-9.4c-.4-.3-.6-.7-.6-1.2 0-.8.7-1.5 1.5-1.5s1.5.7 1.5 1.5c0 .4-.2.8-.4 1l.7 8.9c2.9-.9 6-1.4 9.2-1.4 5.7 0 11 1.5 15.5 4.2l3.5-6.2c-.3-.4-.5-.9-.5-1.5 0-1.4 1.1-2.5 2.5-2.5s2.5 1.1 2.5 2.5-1.1 2.5-2.5 2.5c-.1 0-.2 0-.3 0l-3.6 6.3c6.4 4.5 10.6 11.4 10.8 19.1l6.6-3.4c.2-.6.8-1 1.4-1 .8 0 1.5.7 1.5 1.5s-.7 1.3-1.5 1.3zm-26 7.4s.1.1 0 .2l-12.1 22.8c-.1.1-.3.1-.2-.1l3-17.4c0-.1-.1-.1-.1-.1h-10.5c-.1 0-.1-.1-.1-.1l7.3-22.2c0-.1.1-.1.1-.1h9.2c.1 0 .1.1.1.1l-6.1 16.6c0 .1 0 .1.1.1h9.3z" fill="#ffffff"/></g></svg>