<?xml version="1.0" encoding="utf-8"?><!-- Generator: Adobe Illustrator 22.0.1, SVG Export Plug-In . SVG Version: 6.00 Build 0)  --><svg enable-background="new 0 0 128 128" viewBox="0 0 128 128" xmlns="http://www.w3.org/2000/svg"><g><path d="m95.714 83.571.286.429h-.235zm32.286-19.571c0 35.346-28.654 64-64 64s-64-28.654-64-64 28.654-64 64-64 64 28.654 64 64zm-25.344 15.562-5.333-8c-.435-.653-.977-1.202-1.566-1.69.145-.603.243-1.224.243-1.872v-32c0-4.418-3.582-8-8-8h-48c-4.418 0-8 3.582-8 8v32c0 .648.098 1.269.243 1.872-.589.489-1.131 1.037-1.566 1.69l-5.333 8c-1.637 2.455-1.789 5.611-.397 8.213 1.392 2.601 4.103 4.225 7.053 4.225h64c2.95 0 5.661-1.624 7.053-4.225 1.393-2.601 1.24-5.758-.397-8.213zm-62.656-27.562v16h48v-16-16h-48zm16 36h16v-4h-16z" fill="#ffffff"/></g></svg>