<?xml version="1.0" encoding="utf-8"?>
<!-- Generator: Adobe Illustrator 22.1.0, SVG Export Plug-In . SVG Version: 6.00 Build 0)  -->
<svg version="1.1" xmlns="http://www.w3.org/2000/svg" xmlns:xlink="http://www.w3.org/1999/xlink" x="0px" y="0px"
	 viewBox="0 0 128 128" enable-background="new 0 0 128 128" xml:space="preserve">
<g id="Outline">
	<path fill="#ffffff" d="M64,0L0,64l64,64l64-64L64,0z M63,11c0-0.552,0.448-1,1-1s1,0.448,1,1v6c0,0.552-0.448,1-1,1s-1-0.448-1-1
		V11z M17,65h-6c-0.552,0-1-0.448-1-1s0.448-1,1-1h6c0.552,0,1,0.448,1,1S17.552,65,17,65z M65,117c0,0.552-0.448,1-1,1
		s-1-0.448-1-1v-6c0-0.552,0.448-1,1-1s1,0.448,1,1V117z M64,91.5c-15.188,0-27.5-12.312-27.5-27.5c0-15.188,12.312-27.5,27.5-27.5
		S91.5,48.812,91.5,64C91.5,79.188,79.188,91.5,64,91.5z M117,65h-6c-0.552,0-1-0.448-1-1s0.448-1,1-1h6c0.552,0,1,0.448,1,1
		S117.552,65,117,65z M47.5,67.749L72.5,48l-3.155,32l-7.905-11.67L47.5,67.749z"/>
</g>
<g id="Grid" display="none">
	<g display="inline">
		<g>
			<g opacity="0.1">
				<path fill="#ffffff" d="M64,4c33.084,0,60,26.916,60,60s-26.916,60-60,60S4,97.084,4,64S30.916,4,64,4 M64,0
					C28.654,0,0,28.654,0,64s28.654,64,64,64s64-28.654,64-64S99.346,0,64,0L64,0z"/>
			</g>
		</g>
		<g>
			<g opacity="0.1">
				<path fill="#ffffff" d="M124,4v120H4V4H124 M128,0H0v128h128V0L128,0z"/>
			</g>
		</g>
		<path fill="none" stroke="#ffffff" stroke-width="0.25" stroke-miterlimit="10" d="M-32,0"/>
		<path fill="none" stroke="#ffffff" stroke-width="0.25" stroke-miterlimit="10" d="M160,0"/>
		<line fill="none" stroke="#ffffff" stroke-width="0.25" stroke-miterlimit="10" x1="128" y1="0" x2="0" y2="128"/>
		<line fill="none" stroke="#ffffff" stroke-width="0.25" stroke-miterlimit="10" x1="0" y1="0" x2="128" y2="128"/>
		<line fill="none" stroke="#ffffff" stroke-width="0.25" stroke-miterlimit="10" x1="160" y1="64" x2="-32" y2="64"/>
		
			<line opacity="0.2" fill="none" stroke="#ffffff" stroke-width="0.25" stroke-miterlimit="10" x1="160" y1="32" x2="-32" y2="32"/>
		
			<line opacity="0.2" fill="none" stroke="#ffffff" stroke-width="0.25" stroke-miterlimit="10" x1="160" y1="96" x2="-32" y2="96"/>
		<line fill="none" stroke="#ffffff" stroke-width="0.25" stroke-miterlimit="10" x1="64" y1="0" x2="64" y2="128"/>
		<line opacity="0.2" fill="none" stroke="#ffffff" stroke-width="0.25" stroke-miterlimit="10" x1="32" y1="0" x2="32" y2="128"/>
		<line opacity="0.2" fill="none" stroke="#ffffff" stroke-width="0.25" stroke-miterlimit="10" x1="96" y1="0" x2="96" y2="128"/>
		<circle fill="none" stroke="#ffffff" stroke-width="0.25" stroke-miterlimit="10" cx="64" cy="64" r="64"/>
		<circle fill="none" stroke="#ffffff" stroke-width="0.25" stroke-miterlimit="10" cx="64" cy="64" r="60"/>
		<rect x="4" y="4" fill="none" stroke="#ffffff" stroke-width="0.25" stroke-miterlimit="10" width="120" height="120"/>
		<polyline fill="none" stroke="#ffffff" stroke-width="0.25" stroke-miterlimit="10" points="-28,0 -32,0 -32,4 		"/>
		<polyline fill="none" stroke="#ffffff" stroke-width="0.25" stroke-miterlimit="10" points="-32,124 -32,128 -28,128 		"/>
		<polyline fill="none" stroke="#ffffff" stroke-width="0.25" stroke-miterlimit="10" points="156,128 160,128 160,124 		"/>
		<polyline fill="none" stroke="#ffffff" stroke-width="0.25" stroke-miterlimit="10" points="160,4 160,0 156,0 		"/>
		<rect fill="none" stroke="#ffffff" stroke-width="0.25" stroke-miterlimit="10" width="128" height="128"/>
	</g>
</g>
</svg>
