<?xml version="1.0" encoding="utf-8"?><!-- Generator: Adobe Illustrator 22.0.1, SVG Export Plug-In . SVG Version: 6.00 Build 0)  --><svg enable-background="new 0 0 128 128" viewBox="0 0 128 128" xmlns="http://www.w3.org/2000/svg"><g><path d="m100.88 59.627c.471 1.403.712 2.883.712 4.373 0 1.492-.241 2.969-.712 4.373-.472 1.402-1.174 2.73-2.072 3.913-.896 1.182-1.988 2.22-3.211 3.057-1.227.836-2.585 1.469-4.01 1.869-.713.199-1.441.345-2.178.423-.73.083-1.511.106-2.183.068-1.39-.086-2.761-.457-4.11-1.083-1.35-.628-2.663-1.508-3.922-2.547-1.258-1.042-2.459-2.246-3.612-3.538-1.151-1.293-2.255-2.679-3.335-4.117-.592-.791-1.179-1.598-1.761-2.417.582-.818 1.169-1.625 1.761-2.415 1.08-1.437 2.183-2.824 3.335-4.119 1.152-1.291 2.353-2.494 3.612-3.536 1.259-1.043 2.572-1.921 3.922-2.547 1.349-.626 2.721-.997 4.11-1.083.672-.04 1.453-.018 2.183.064.737.08 1.465.227 2.178.423 1.425.399 2.783 1.036 4.01 1.871 1.224.837 2.315 1.873 3.211 3.058.898 1.181 1.6 2.507 2.072 3.91zm-48.461-2.161c-1.152-1.292-2.353-2.496-3.612-3.538-1.259-1.039-2.572-1.919-3.922-2.547-1.349-.626-2.721-.996-4.11-1.083-.672-.039-1.453-.016-2.183.068-.737.078-1.465.224-2.178.423-1.426.399-2.783 1.032-4.01 1.869-1.224.837-2.315 1.875-3.211 3.057-.898 1.183-1.6 2.511-2.072 3.913-.471 1.404-.712 2.881-.712 4.373 0 1.49.241 2.97.712 4.373.472 1.403 1.174 2.729 2.072 3.911.896 1.185 1.988 2.221 3.211 3.058 1.227.835 2.585 1.472 4.01 1.871.713.197 1.441.344 2.178.423.73.081 1.511.103 2.183.064 1.39-.085 2.761-.457 4.11-1.083 1.35-.626 2.663-1.504 3.922-2.547 1.259-1.042 2.459-2.245 3.612-3.536 1.151-1.295 2.255-2.682 3.335-4.119.592-.79 1.179-1.597 1.761-2.415-.582-.819-1.169-1.626-1.761-2.417-1.08-1.439-2.183-2.824-3.335-4.118zm75.581 6.534c0 35.347-28.655 64-64.001 64s-63.999-28.653-63.999-64 28.653-64 63.999-64 64.001 28.653 64.001 64zm-17.1 7.734c.837-2.495 1.261-5.097 1.261-7.734 0-2.639-.425-5.243-1.264-7.742-.841-2.499-2.073-4.828-3.659-6.916-1.585-2.096-3.498-3.918-5.694-5.421-2.188-1.489-4.588-2.606-7.148-3.323-1.291-.356-2.579-.605-3.819-.739-.868-.097-1.792-.148-2.671-.148-.441 0-.885.013-1.331.039-2.679.165-5.339.853-7.906 2.043-2.104.975-4.196 2.319-6.217 3.995-1.589 1.316-3.148 2.837-4.771 4.656-1.174 1.321-2.38 2.804-3.681 4.523-1.298-1.717-2.508-3.204-3.693-4.535-1.615-1.81-3.174-3.331-4.771-4.654-2.022-1.67-4.108-3.01-6.203-3.985-2.564-1.189-5.234-1.877-7.952-2.046-.414-.024-.841-.036-1.269-.036-.898 0-1.821.051-2.639.145-1.287.137-2.601.391-3.91.755-2.538.711-4.935 1.828-7.128 3.323-2.172 1.486-4.078 3.301-5.662 5.39-1.594 2.1-2.83 4.434-3.673 6.941-.837 2.495-1.261 5.097-1.261 7.734 0 2.639.425 5.243 1.264 7.742.841 2.499 2.073 4.828 3.659 6.916 1.585 2.096 3.498 3.918 5.694 5.421 2.188 1.49 4.588 2.606 7.148 3.323 1.291.356 2.579.605 3.818.739.868.097 1.792.148 2.671.148.441 0 .885-.013 1.331-.039 2.679-.165 5.339-.853 7.906-2.043 2.104-.975 4.196-2.319 6.217-3.995 1.589-1.316 3.148-2.837 4.771-4.656 1.171-1.318 2.375-2.797 3.672-4.512.014.018.028.037.042.055.003-.004.006-.008.009-.011 1.282 1.693 2.479 3.163 3.651 4.48 1.615 1.81 3.174 3.331 4.771 4.654 2.022 1.67 4.108 3.01 6.203 3.984 2.564 1.189 5.234 1.877 7.952 2.046.414.024.841.036 1.269.036.898 0 1.821-.051 2.639-.145 1.287-.137 2.601-.391 3.91-.755 2.538-.711 4.935-1.828 7.128-3.323 2.172-1.486 4.078-3.301 5.662-5.39 1.594-2.1 2.83-4.434 3.674-6.94z" fill="#ffffff"/></g></svg>