<?xml version="1.0" encoding="utf-8"?><!-- Generator: Adobe Illustrator 21.0.2, SVG Export Plug-In . SVG Version: 6.00 Build 0)  --><svg enable-background="new 0 0 128 128" viewBox="0 0 128 128" xmlns="http://www.w3.org/2000/svg"><g><path d="m64.156 0c-35.346-.086-64.069 28.497-64.156 63.843-.086 35.346 28.497 64.07 63.843 64.157 35.346.086 64.07-28.497 64.156-63.843.087-35.346-28.496-64.07-63.843-64.157zm42.94 73.91c-1.236-.003-2.236-.959-2.337-2.17l-14.042-1.529c-2.037 8.44-8.1 15.347-16.09 18.65l8.998 17.513c.47-.182.977-.29 1.511-.289 2.31.006 4.178 1.886 4.172 4.201-.006 2.314-1.883 4.186-4.193 4.18s-4.178-1.886-4.172-4.201c.004-1.458.752-2.738 1.881-3.486l-9.039-17.593c-3.071 1.153-6.402 1.788-9.887 1.78-10.145-.026-18.988-5.444-23.734-13.482l-13.454 6.124c.073.311.12.631.12.964-.006 2.314-1.883 4.186-4.193 4.18s-4.178-1.886-4.172-4.201c.006-2.314 1.883-4.186 4.193-4.18 1.659.004 3.077.983 3.75 2.387l13.306-6.057c-2.082-3.813-3.26-8.173-3.248-12.803.017-6.882 2.66-13.153 6.989-17.911l-15.156-15.21c-.379.257-.836.407-1.327.405-1.305-.003-2.36-1.066-2.357-2.373.003-1.308 1.064-2.365 2.369-2.362s2.36 1.066 2.357 2.373c-.001.49-.151.945-.406 1.322l15.138 15.192c5.024-5.17 12.109-8.389 19.961-8.37 4.733.011 9.182 1.197 13.066 3.273l10.69-19.171c-1.069-.762-1.77-2.008-1.766-3.422.006-2.314 1.883-4.186 4.193-4.18s4.178 1.886 4.172 4.201c-.006 2.314-1.883 4.186-4.193 4.18-.577-.001-1.127-.12-1.627-.333l-10.69 19.167c8.147 4.703 13.61 13.403 13.585 23.352-.005 1.814-.194 3.585-.546 5.297l13.936 1.517c.299-.967 1.189-1.674 2.253-1.671 1.305.003 2.36 1.066 2.357 2.373-.002 1.309-1.063 2.366-2.368 2.363zm-54.985-12.674 5.68 5.662 18.127-17.898 6.082 6.062-24.235 23.937-.004-.005-.006.006-11.755-11.73z" fill="#ffffff"/></g></svg>