<?xml version="1.0" encoding="utf-8"?><!-- Generator: Adobe Illustrator 21.0.2, SVG Export Plug-In . SVG Version: 6.00 Build 0)  --><svg enable-background="new 0 0 128 128" viewBox="0 0 128 128" xmlns="http://www.w3.org/2000/svg"><g><path d="m63.999 0c-35.345 0-63.999 28.653-63.999 64.001 0 35.346 28.654 63.999 63.999 63.999 35.347 0 64.001-28.653 64.001-63.999 0-35.348-28.654-64.001-64.001-64.001zm32.001 104c0 6.6-5.4 12-12 12h-40c-6.6 0-12-5.4-12-12v-80c0-6.6 5.4-12 12-12h40c6.6 0 12 5.4 12 12zm-38-85c0-.828.672-1.5 1.5-1.5h9c.828 0 1.5.672 1.5 1.5s-.672 1.5-1.5 1.5h-9c-.828 0-1.5-.671-1.5-1.5zm10.5 89c0 2.485-2.015 4.5-4.5 4.5s-4.5-2.015-4.5-4.5 2.015-4.5 4.5-4.5 4.5 2.015 4.5 4.5zm-30.5-8.5h52v-75h-52zm3-72h46v68h-46zm7 8.5h8v8h-8zm12 0h8v8h-8zm12 0h8v8h-8zm-24 12h8v8h-8zm12 0h8v8h-8zm12 0h8v8h-8zm-24 12h8v8h-8zm12 0h8v8h-8zm12 0h8v8h-8z" fill="#ffffff"/></g></svg>