<?xml version="1.0" encoding="utf-8"?><!-- Generator: Adobe Illustrator 22.0.1, SVG Export Plug-In . SVG Version: 6.00 Build 0)  --><svg enable-background="new 0 0 128 128" viewBox="0 0 128 128" xmlns="http://www.w3.org/2000/svg"><g><path d="m64 1c-35.346 0-64 28.654-64 64s28.654 64 64 64 64-28.654 64-64-28.654-64-64-64zm0 26c3.59 0 6.5 3.039 6.5 6.787 0 2.752-1.572 5.116-3.827 6.181v2.991c0 1.535-1.203 2.791-2.673 2.791s-2.673-1.256-2.673-2.791v-2.991c-2.255-1.065-3.827-3.429-3.827-6.181 0-3.748 2.91-6.787 6.5-6.787zm-40.125 50.111c0 1.589-1.294 2.889-2.875 2.889s-2.875-1.3-2.875-2.889v-7.222c0-1.589 1.294-2.889 2.875-2.889s2.875 1.3 2.875 2.889zm40.125 20.389c-20.711 0-37.5-10.745-37.5-24s16.789-24 37.5-24 37.5 10.745 37.5 24-16.789 24-37.5 24zm43-17.5c-1.581 0-2.875-1.3-2.875-2.889v-7.222c0-1.589 1.294-2.889 2.875-2.889s2.875 1.3 2.875 2.889v7.222c0 1.589-1.294 2.889-2.875 2.889zm-52.5-6.5c0 4.004-3.246 7.25-7.25 7.25s-7.25-3.246-7.25-7.25 3.246-7.25 7.25-7.25 7.25 3.246 7.25 7.25zm33 0c0 4.004-3.246 7.25-7.25 7.25s-7.25-3.246-7.25-7.25 3.246-7.25 7.25-7.25 7.25 3.246 7.25 7.25z" fill="#444444"/></g></svg>