<?xml version="1.0" encoding="utf-8"?><!-- Generator: Adobe Illustrator 22.0.1, SVG Export Plug-In . SVG Version: 6.00 Build 0)  --><svg enable-background="new 0 0 128 128" viewBox="0 0 128 128" xmlns="http://www.w3.org/2000/svg"><g><path d="m64 0c-35.3 0-64 28.7-64 64s28.7 64 64 64 64-28.7 64-64-28.7-64-64-64zm31.2 102c0 2.2-1.9 4-4 4h-55.8c-2.2 0-3.9-1.8-3.9-4l1.3-76c0-2.2 1.9-4 4-4h55.7c2.2 0 3.9 1.8 3.9 4zm-55.4-41.2h48.5v-31.5h-48.5zm8.3-9.6 5.3-9.4c.2-.3.5-.5.8-.5s.7.1.8.4l5.7 8 6.4-15.8c.2-.4.5-.6.9-.6s.8.3.9.7l6.1 18.9 5-13.1c.2-.5.8-.8 1.3-.6s.8.7.6 1.2l-6 15.7c-.1.4-.5.6-.9.6-.4 0-.8-.3-.9-.7l-6.1-19-6.1 15c-.1.3-.4.6-.8.6s-.7-.1-.9-.4l-5.8-8.2-4.6 8.1c-.3.5-.9.6-1.3.4-.5-.3-.6-.8-.4-1.3zm25.7 44.8h14.5v-27h-14.5zm3.2-14.6c0-.2.2-.4.3-.4h7.3c.2 0 .3.2.3.4v.8c0 .2-.2.4-.3.4h-7.3c-.2 0-.3-.2-.3-.4zm0 2.5c0-.2.2-.4.3-.4h7.3c.2 0 .3.2.3.4v.8c0 .2-.2.4-.3.4h-7.3c-.2 0-.3-.2-.3-.4zm-20.2-14.9h13v7h-13zm-17 0h13v7h-13zm17 10h13v7h-13zm-17 0h13v7h-13zm17 10h13v7h-13zm-17 0h13v7h-13z" fill="#444444"/></g></svg>