<?xml version="1.0" encoding="utf-8"?><!-- Generator: Adobe Illustrator 22.0.1, SVG Export Plug-In . SVG Version: 6.00 Build 0)  --><svg enable-background="new 0 0 128 128" viewBox="0 0 128 128" xmlns="http://www.w3.org/2000/svg"><g><path d="m64 0c-35.3 0-64 28.7-64 64s28.7 64 64 64 64-28.7 64-64-28.7-64-64-64zm41.6 74.2c-1 4-2.7 7.7-4.8 11.1l5.6 8.7-11.4 11.1-9-5.5c-3.5 2-7.2 3.6-11.2 4.6l-2.7 11.8h-16.2l-2.7-11.8c-3.9-1-7.6-2.5-11-4.4l-10.5 6.5-11.4-11.1 6.7-10.1c-2-3.4-3.6-7-4.6-10.9l-10.4-2.3v-15.8l10.4-2.3c1-4 2.7-7.7 4.8-11.1l-5.7-8.7 11.5-11.1 9 5.5c3.5-2 7.2-3.6 11.2-4.6l2.7-11.8h16.2l2.7 11.8c3.9 1 7.6 2.5 11 4.4l10.5-6.5 11.5 11.1-6.8 10.1c2 3.4 3.6 7 4.6 10.9l10.4 2.3v15.7zm-41.6-41.7c-17.4 0-31.5 14.1-31.5 31.5s14.1 31.5 31.5 31.5 31.5-14.1 31.5-31.5-14.1-31.5-31.5-31.5zm-18.5 46.5v-7.9l10.4-7-10.4-7.1v-8l22 15zm19 0v-7.9l10.4-7-10.4-7.1v-8l22 15z" fill="#444444"/></g></svg>