<?xml version="1.0" encoding="utf-8"?><!-- Generator: Adobe Illustrator 22.0.1, SVG Export Plug-In . SVG Version: 6.00 Build 0)  --><svg enable-background="new 0 0 128 128" viewBox="0 0 128 128" xmlns="http://www.w3.org/2000/svg"><g><path d="m63.999 0c-35.346 0-63.999 28.653-63.999 64s28.653 64 63.999 64 64.001-28.653 64.001-64-28.655-64-64.001-64zm29.213 64.957c.207.25.413.499.61.748.498.627.969 1.257 1.399 1.871.146.207.287.414.425.618.553.825 1.053 1.646 1.483 2.44.22.403.423.804.612 1.199.189.398.364.794.523 1.185.08.194.155.389.227.583.146.394.276.783.39 1.166.056.189.11.381.159.571.102.391.186.773.251 1.14s.117.743.153 1.115c.028.298.045.599.052.896l.003.202c.001.185-.002.363-.01.541-.024.543-.087 1.077-.187 1.586-.206 1.042-.575 2.029-1.096 2.932-.151.261-.314.515-.486.755-.061.087-.122.169-.185.251-.203.265-.42.521-.649.762-.157.167-.325.333-.504.496-.368.338-.77.655-1.195.943-.335.228-.695.444-1.071.643-.126.066-.257.133-.391.198-.68.33-1.426.613-2.218.842-.304.088-.621.169-.951.244-.216.049-.44.095-.67.138l-.358.063c-1.191.199-2.51.302-3.907.302-.591 0-1.209-.019-1.837-.056-1.029-.061-2.113-.174-3.222-.335l-.633-.098-1.721-.291-.431 1.167c-.112.303-.225.606-.342.902-.1.252-.199.497-.299.738-.202.484-.41.956-.622 1.413-.318.686-.652 1.348-.993 1.97-.23.42-.463.823-.702 1.212-.24.392-.485.769-.733 1.129-.25.362-.505.712-.765 1.046-.389.501-.795.975-1.204 1.407-1.263 1.334-2.625 2.343-4.047 2.998-.318.147-.65.28-.983.393-.496.17-1.007.3-1.523.387-.515.086-1.042.13-1.564.13s-1.048-.044-1.562-.13c-.515-.087-1.028-.217-1.524-.387-.333-.113-.665-.246-.985-.395-1.422-.654-2.782-1.662-4.045-2.996-.407-.43-.813-.904-1.206-1.41-.257-.331-.513-.68-.763-1.045-.25-.361-.493-.737-.732-1.127-.238-.39-.472-.793-.701-1.212-.34-.621-.675-1.284-.994-1.97-.212-.457-.42-.929-.622-1.414-.1-.24-.2-.486-.299-.736l-.202-.522-.576-1.553-1.229.212c-.376.065-.752.127-1.121.181-1.109.161-2.193.274-3.222.335-.627.037-1.246.056-1.837.056-1.396 0-2.713-.102-3.917-.303l-.358-.063c-.218-.041-.443-.087-.662-.137-.329-.075-.646-.156-.951-.244-.788-.228-1.534-.511-2.219-.843-.13-.063-.261-.129-.389-.197-.372-.197-.732-.414-1.069-.642-.222-.151-.432-.305-.63-.462-.2-.158-.388-.318-.564-.481-.182-.166-.349-.332-.507-.499-.156-.166-.305-.335-.444-.505-.325-.396-.619-.82-.874-1.263-.174-.301-.333-.615-.473-.936-.138-.315-.261-.645-.365-.978-.104-.332-.189-.673-.257-1.016-.034-.174-.064-.349-.089-.524-.038-.259-.065-.524-.083-.792-.018-.266-.026-.535-.025-.809.001-.359.02-.729.055-1.1.035-.367.086-.742.154-1.118.101-.562.239-1.138.41-1.711.114-.383.243-.771.389-1.163.145-.387.304-.779.479-1.176.174-.393.362-.791.567-1.191.103-.201.208-.402.317-.603.177-.324.367-.655.565-.986.165-.277.335-.556.515-.837.325-.508.677-1.027 1.047-1.544.372-.517.769-1.042 1.181-1.562.196-.249.401-.497.608-.746l.794-.955-.797-.959c-.207-.249-.412-.498-.609-.746-.746-.94-1.428-1.881-2.029-2.797-.151-.231-.298-.461-.44-.691-.281-.452-.549-.912-.796-1.365-.125-.227-.244-.452-.358-.675-.409-.803-.761-1.6-1.047-2.37-.146-.394-.276-.781-.39-1.163-.114-.385-.214-.771-.296-1.146-.125-.568-.214-1.135-.267-1.684-.035-.371-.054-.741-.055-1.098-.002-.52.031-1.038.101-1.542.027-.194.058-.389.096-.579.068-.346.155-.688.258-1.019.052-.168.108-.331.168-.493.082-.219.172-.43.268-.639.132-.288.262-.542.401-.782.256-.445.55-.869.875-1.265.139-.169.289-.339.449-.509.154-.162.322-.329.502-.494.175-.161.364-.322.563-.479.303-.24.629-.47.97-.684.353-.221.73-.429 1.121-.619.264-.128.541-.25.833-.367.147-.059.296-.116.448-.171.296-.106.609-.209.938-.303.165-.048.331-.093.501-.136.383-.098.785-.185 1.191-.259 1.283-.233 2.695-.352 4.195-.352 1.875 0 3.955.193 6.182.574l1.224.209.581-1.555.201-.521c.293-.742.603-1.464.92-2.147.266-.573.543-1.129.823-1.654.281-.528.574-1.042.872-1.527.121-.198.241-.388.362-.574.124-.19.248-.376.372-.557.372-.541.762-1.058 1.157-1.535.134-.163.27-.32.405-.474.269-.304.545-.595.824-.869 2.314-2.28 4.976-3.484 7.698-3.484s5.384 1.204 7.7 3.482c.28.275.558.569.828.874.133.15.268.307.401.468.397.48.787.997 1.158 1.537.125.182.249.368.372.557.12.186.241.376.361.572.298.487.591 1 .872 1.528.283.531.56 1.087.823 1.653.317.683.627 1.406.921 2.149.117.297.231.601.344.906l.432 1.169 1.228-.21c2.227-.381 4.307-.574 6.183-.574.882 0 1.74.042 2.549.123.777.078 1.526.194 2.229.346l.201.045c.309.07.614.148.907.232.79.229 1.537.512 2.221.844.515.249 1.005.531 1.459.838.629.427 1.202.912 1.7 1.44.229.241.446.498.648.761.062.082.125.166.184.25.174.243.337.497.488.757.521.905.891 1.891 1.096 2.933.1.509.164 1.042.188 1.584.008.179.011.358.01.539l-.003.211c-.007.3-.024.595-.052.889-.036.374-.088.75-.155 1.12-.06.337-.134.679-.222 1.024-.058.232-.119.459-.188.688-.057.189-.119.385-.184.581-.142.422-.313.876-.508 1.343-.112.269-.234.544-.363.821-.09.192-.183.386-.28.581-.194.389-.402.781-.625 1.177-.11.196-.225.393-.342.59-.212.357-.434.714-.668 1.073-.179.276-.365.552-.556.829-.222.32-.454.645-.696.97-.236.319-.478.637-.73.957l-.113.145c-.192.242-.396.49-.603.738l-.796.958zm-34.871-23.002-1.477-.516.577-1.454c.262-.66.536-1.293.815-1.884.283-.599.578-1.169.876-1.694.22-.388.448-.76.676-1.107l.227-.335c.15-.217.302-.424.454-.62.15-.194.301-.378.453-.553.149-.171.298-.332.447-.482 1.18-1.188 2.071-1.438 2.611-1.438.592 0 1.251.286 1.959.85.144.115.288.239.429.372.113.105.225.218.336.334.11.115.221.233.335.365.225.258.454.545.678.852.153.208.305.428.46.664l.166.256c.17.269.338.55.504.842l.224.402c.111.205.221.417.33.632.159.314.316.64.473.983l.127.282c.162.364.32.745.476 1.132l.586 1.454-1.479.521c-1.177.415-2.25.819-3.279 1.235-.622.25-1.257.521-1.897.797l-.587.255-1.617-.679-.66-.267c-1.002-.399-2.056-.792-3.223-1.199zm11.263 44.231 1.476.521-.583 1.453c-.386.96-.784 1.839-1.186 2.612l-.223.421c-.147.271-.296.533-.445.783s-.301.491-.452.721c-.15.229-.302.447-.453.654s-.303.403-.458.591c-.148.18-.297.352-.449.515-.434.467-.867.844-1.286 1.12-.2.132-.395.239-.583.323-.083.037-.164.069-.265.103-.247.083-.475.124-.7.124s-.457-.042-.711-.127c-.083-.028-.164-.06-.255-.101-.183-.082-.378-.188-.581-.322-.422-.278-.855-.656-1.286-1.12-.151-.162-.301-.334-.45-.516-.11-.134-.218-.274-.325-.416-.087-.117-.175-.236-.263-.36-.107-.152-.214-.307-.32-.467-.201-.305-.399-.629-.597-.971l-.157-.276c-.123-.219-.244-.443-.365-.675-.111-.215-.22-.436-.33-.662-.139-.287-.275-.582-.41-.886-.153-.344-.301-.703-.448-1.066l-.585-1.454 1.591-.562c.421-.148.842-.297 1.268-.457.333-.124.667-.252.996-.38.3-.117 2.629-1.056 2.629-1.056l.586-.267 1.365.562c.288.122.973.402.973.402 1.031.416 2.103.82 3.282 1.236zm-22.075-6.231.288 1.541s-2.074.296-2.225.314l-.473.053c-.479.05-.948.088-1.404.113-.23.013-.458.022-.675.028-.223.007-.443.01-.661.01-.476 0-.938-.017-1.377-.048-.157-.011-.311-.025-.513-.046-.419-.044-.816-.104-1.184-.178-.119-.024-.235-.049-.354-.078-.205-.049-.402-.104-.595-.165-.113-.036-.224-.073-.333-.114l-.243-.095-.131-.057c-.09-.04-.178-.082-.262-.124-.133-.069-.259-.143-.366-.213-.087-.056-.171-.115-.242-.172-.091-.07-.176-.143-.247-.212-.088-.086-.17-.18-.241-.276l-.098-.153-.093-.177c-.064-.138-.114-.284-.145-.417-.029-.122-.051-.248-.064-.384l-.015-.21c-.006-.144-.005-.291.004-.444.061-1.048.455-2.304 1.17-3.729l.194-.377c.269-.507.576-1.03.913-1.556.172-.269.353-.54.542-.813.192-.276.392-.555.596-.83.106-.144.214-.287.323-.428l1.168-1.49 1.189 1.019c.952.815 1.839 1.542 2.708 2.221l.56.434.892.672.534.509.094.804c.038.323.075.646.116.958l.096.703c.049.346.099.69.15 1.027l.135.849c.084.517.175 1.026.269 1.531zm-1.216-33.665 1.553.219-.288 1.542c-.23 1.232-.417 2.364-.57 3.459l-.355 2.541-.837.622c-.192.142-.385.283-.565.421l-.562.436c-.917.716-1.822 1.455-2.707 2.212l-1.191 1.031-.972-1.241c-.636-.812-1.194-1.593-1.662-2.322-.17-.267-.333-.531-.484-.79-.151-.258-.294-.513-.429-.767-.066-.125-.131-.25-.19-.37-.124-.246-.237-.487-.341-.722-.153-.348-.288-.69-.401-1.02l-.103-.316c-.188-.611-.298-1.175-.327-1.676-.009-.156-.01-.307-.004-.452.006-.134.019-.264.05-.449l.028-.135c.018-.072.033-.142.108-.336l.087-.189.103-.171.042-.057c.072-.098.152-.19.232-.267.093-.092.196-.18.315-.268.06-.044.12-.084.162-.111.121-.079.248-.154.383-.223.081-.042.166-.081.28-.133l.133-.057c.136-.056.277-.108.427-.16l.132-.042c.189-.06.386-.114.591-.163.313-.075.653-.14 1.006-.19.17-.025.346-.046.588-.072.148-.015.301-.028.456-.04.442-.032.905-.048 1.377-.048 1.18 0 2.503.102 3.935.304zm45.806 32.156c.005.083.008.165.009.239.001.148-.006.291-.019.42s-.033.254-.064.384c-.026.106-.057.21-.089.292l-.072.176-.062.106c-.11.191-.259.37-.439.53-.064.058-.134.114-.193.158-.072.055-.148.107-.234.162-.124.079-.256.153-.386.218-.092.047-.187.091-.29.136-.097.042-.197.081-.304.12-.106.039-.216.077-.335.115-.189.059-.387.114-.593.164-.343.082-.72.152-1.122.206-.132.018-.268.034-.47.056-.142.014-.286.027-.431.038-.445.033-.917.05-1.404.05-.218 0-.438-.003-.654-.01-.225-.006-.451-.015-.68-.028-.458-.025-.927-.063-1.408-.113-.312-.032-.629-.071-.952-.115l-1.788-.255.288-1.541c.098-.523.191-1.051.279-1.583l.135-.85c.052-.34.102-.684.149-1.024l.096-.7c.045-.342.085-.688.135-1.126l.072-.624 2.019-1.577c.745-.581 1.465-1.164 2.14-1.729l.576-.489 1.245-.945.967 1.229.459.602c.21.282.411.562.6.835.19.275.372.547.543.815.171.267.333.53.486.792.151.258.293.513.428.767.067.125.132.25.191.37.184.367.349.727.489 1.069.185.45.334.885.445 1.295.027.101.053.2.076.299.089.379.143.739.162 1.066zm.005-29.348.004.212-.008.241c-.005.083-.012.167-.021.245-.037.348-.109.725-.216 1.12-.227.835-.606 1.756-1.126 2.736-.133.251-.276.507-.427.765-.153.261-.315.525-.487.794-.482.752-1.053 1.549-1.699 2.371l-.995 1.199-1.188-1.009c-.948-.805-1.837-1.528-2.721-2.213l-.09-.07c-.417-.323-.85-.644-1.283-.965l-.505-.374-.371-2.64c-.048-.345-.098-.688-.15-1.027-.126-.823-.265-1.633-.415-2.433l-.288-1.542 1.553-.219c1.429-.201 2.75-.303 3.928-.303.497 0 .976.017 1.426.051.149.011.295.024.435.039.19.019.377.042.557.069.337.048.661.109.965.18l.1.024c.209.051.412.108.603.17.201.065.392.137.577.216.114.05.225.101.354.168l.131.071c.077.044.152.09.239.146.051.034.103.068.151.105.114.083.219.173.303.256.085.083.161.16.289.344l.072.112c.124.216.211.471.261.771.022.126.035.255.042.39zm-19.933 14.902c0 4.517-3.674 8.191-8.19 8.191-4.517 0-8.191-3.674-8.191-8.191s3.674-8.191 8.191-8.191c4.515 0 8.19 3.675 8.19 8.191z" fill="#444444"/></g></svg>