<?xml version="1.0" encoding="utf-8"?><!-- Generator: Adobe Illustrator 21.0.2, SVG Export Plug-In . SVG Version: 6.00 Build 0)  --><svg enable-background="new 0 0 128 128" viewBox="0 0 128 128" xmlns="http://www.w3.org/2000/svg"><g/><g/><g><path d="m63.999 0c-35.346 0-63.999 28.653-63.999 64s28.653 64 63.999 64 64.001-28.653 64.001-64-28.655-64-64.001-64zm-10.127 9.002c2.208-.071 4.055 1.662 4.126 3.87.07 2.208-1.662 4.055-3.87 4.126-2.208.07-4.055-1.662-4.126-3.87-.07-2.208 1.662-4.055 3.87-4.126zm-39.244 70.996c-2.208.07-4.055-1.662-4.126-3.87s1.662-4.055 3.87-4.126 4.055 1.662 4.126 3.87c.07 2.208-1.662 4.055-3.87 4.126zm1-28c-2.208.07-4.055-1.662-4.126-3.87s1.662-4.055 3.87-4.126 4.055 1.662 4.126 3.87c.07 2.208-1.662 4.055-3.87 4.126zm11 51.323c-2.208.07-4.055-1.662-4.126-3.87s1.662-4.055 3.87-4.126 4.055 1.662 4.126 3.87c.07 2.208-1.662 4.055-3.87 4.126zm2.5-72.823c-2.208.07-4.055-1.662-4.126-3.87s1.662-4.055 3.87-4.126 4.055 1.662 4.126 3.87c.07 2.208-1.662 4.055-3.87 4.126zm25 88.5c-2.208.07-4.055-1.662-4.126-3.87s1.662-4.055 3.87-4.126 4.055 1.662 4.126 3.87c.07 2.208-1.662 4.055-3.87 4.126zm-15.128-34.998.016-10.562 13.652-9.395-13.624-9.436.017-10.607 28.939 20.043zm25.045-29.392.016-10.608 28.939 20.043-29 19.957.016-10.562 13.652-9.395zm-.033 66.392c-.004 0-.008 0-.012 0v-10.156h.012c25.371 0 46.012-21.014 46.012-46.844s-20.641-46.844-46.012-46.844c-.004 0-.008 0-.012 0v-10.156h.012c30.921 0 55.988 25.52 55.988 57s-25.067 57-55.988 57z" fill="#444444"/><g/><g/><g/><g/><g/><g/></g></svg>