<?xml version="1.0" encoding="utf-8"?><!-- Generator: Adobe Illustrator 22.0.1, SVG Export Plug-In . SVG Version: 6.00 Build 0)  --><svg enable-background="new 0 0 128 128" viewBox="0 0 128 128" xmlns="http://www.w3.org/2000/svg"><g><path d="m63.999 0c-35.346 0-63.999 28.653-63.999 64s28.653 64 63.999 64 64.001-28.653 64.001-64-28.655-64-64.001-64zm38.705 58.001c-5.737 23.484-38.679 41.499-38.679 41.499s-32.473-17.702-38.67-41.499c-5.42-20.799 15.807-40.461 38.672-22.358 23.638-18.103 43.773 1.474 38.677 22.358zm-20.26-24.751c-4.775 0-10.036 2.094-15.215 6.055l-3.248 2.483-3.206-2.534c-4.955-3.92-10.085-5.988-14.834-5.988-4.945 0-9.359 2.203-12.429 6.206-3.513 4.577-4.633 10.63-3.072 16.61 4.592 17.607 26.166 32.12 33.593 36.669 7.489-4.585 29.344-19.256 33.583-36.591 1.504-6.151.299-12.522-3.224-17.037-2.955-3.789-7.197-5.873-11.948-5.873zm10.069 22.115c-3.358 13.748-20.223 26.235-28.481 31.635-8.176-5.359-24.862-17.767-28.517-31.791-1.144-4.384-.361-8.773 2.15-12.045 2.08-2.714 4.936-4.148 8.258-4.148 3.56 0 7.565 1.68 11.583 4.859l6.418 5.079 6.5-4.973c4.258-3.26 8.418-4.981 12.032-4.981 3.145 0 5.841 1.33 7.802 3.847 2.534 3.249 3.377 7.929 2.255 12.518z" fill="#444444"/></g></svg>