<?xml version="1.0" encoding="utf-8"?><!-- Generator: Adobe Illustrator 22.0.0, SVG Export Plug-In . SVG Version: 6.00 Build 0)  --><svg enable-background="new 0 0 128 128" viewBox="0 0 128 128" xmlns="http://www.w3.org/2000/svg"><g><path d="m64.2 0c-35.4-.1-64.1 28.5-64.2 63.8s28.5 64.1 63.8 64.2 64.1-28.5 64.2-63.8c.1-35.4-28.5-64.1-63.8-64.2zm16.8 25.2h18v18h-18zm9 32.8c5 0 9 4 9 9s-4 9-9 9-9-4-9-9 4-9 9-9zm-58-14c5.3 0 9.5 4.3 9.5 9.5s-4.3 9.5-9.5 9.5c-5.2 0-9.5-4.3-9.5-9.5 0-5.3 4.2-9.5 9.5-9.5zm19 40h-38c0-10.5 8.5-18.5 19-18.5h.3c10.4 0 18.7 7.9 18.7 18.5zm14.9-18.2h9.1c.6 0 1 .4 1 1s-.4 1-1 1h-10.9v30.2h10.9c.6 0 1 .4 1 1s-.4 1-1 1h-12.9v-32.2h-9.1c-.6 0-1-.4-1-1s.4-1 1-1h9.1v-31.8h12.9c.6 0 1 .4 1 1s-.4 1-1 1h-10.9v29.9h1.8zm29.1 42.2h-10l-5-9 5-9h10l5 9z" fill="#444444"/></g></svg>