<?xml version="1.0" encoding="utf-8"?><!-- Generator: Adobe Illustrator 22.0.0, SVG Export Plug-In . SVG Version: 6.00 Build 0)  --><svg enable-background="new 0 0 128 128" viewBox="0 0 128 128" xmlns="http://www.w3.org/2000/svg"><g><path d="m64 0c-35.3 0-64 28.7-64 64s28.7 64 64 64 64-28.7 64-64-28.7-64-64-64zm23.2 114c-2.5 0-4.6-1.9-4.6-4.2 0-1.5.8-2.7 2.1-3.5l-9.9-17.5c.3-.1.6-.3.9-.4l9.9 17.5c.5-.2 1.1-.3 1.7-.3 2.5 0 4.6 1.9 4.6 4.2s-2.1 4.2-4.7 4.2zm24.2-40.6c-1.4 0-2.5-1-2.6-2.2l-17.9-1.8c-1.1 5.2-3.8 9.9-7.5 13.5-3-7.5-9.9-12.7-18.1-13v.1c-.3 0-.6 0-1 0h-.1v-.1c-.1 0-.1 0-.2 0-8.8 0-16.3 5.3-19.4 13.1-2-2-3.7-4.2-5-6.7l-16.5 6.8c.1.3.1.6.1 1 0 2.3-2.1 4.2-4.6 4.2s-4.6-1.9-4.6-4.2 2.1-4.2 4.6-4.2c1.8 0 3.4 1 4.1 2.4l16.4-6.8c-1.7-3.5-2.7-7.5-2.7-11.6 0-6.5 2.4-12.5 6.3-17.1l-18-16.4c-.4.3-.9.4-1.5.4-1.4 0-2.6-1.1-2.6-2.4s1.2-2.4 2.6-2.4 2.6 1.1 2.6 2.4c0 .5-.2.9-.4 1.3l17.9 16.4c5.1-5.6 12.4-9.1 20.6-9.1 5 0 9.8 1.4 13.8 3.7l12.3-20.1c-1.2-.8-1.9-2-1.9-3.4 0-2.3 2.1-4.2 4.6-4.2s4.6 1.9 4.6 4.2-2.1 4.2-4.6 4.2c-.6 0-1.2-.1-1.8-.3l-12.2 20.1c7.7 4.8 12.8 13.2 12.8 22.8 0 1.6-.2 3.1-.4 4.6l17.9 1.8c.3-1 1.3-1.7 2.5-1.7 1.4 0 2.6 1.1 2.6 2.4-.1 1.3-1.3 2.3-2.7 2.3zm-47.4-7.4c-5.5 0-10-4.5-10-10s4.5-10 10-10c5.5 0 10 4.5 10 10s-4.5 10-10 10z" fill="#444444"/></g></svg>