<?xml version="1.0" encoding="utf-8"?><!-- Generator: Adobe Illustrator 21.0.2, SVG Export Plug-In . SVG Version: 6.00 Build 0)  --><svg enable-background="new 0 0 128 128" viewBox="0 0 128 128" xmlns="http://www.w3.org/2000/svg"><g><path d="m63.999 0c-35.346 0-63.999 28.653-63.999 64s28.653 64 63.999 64 64.001-28.653 64.001-64-28.655-64-64.001-64zm48.493 92.054c-2.912 5.028-9.344 6.749-14.365 3.844-4.43-2.563-6.277-7.869-4.653-12.536l-15.02-8.69c-2.914 3.895-7.356 6.58-12.453 7.141v17.381c5.003.933 8.506 5.189 8.506 10.305 0 5.799-4.706 10.5-10.508 10.5s-10.507-4.701-10.507-10.5c0-5.116 3.504-9.372 8.506-10.305v-17.38c-5.121-.564-9.582-3.272-12.495-7.197l-15.053 8.631c1.606 4.673-.262 9.972-4.702 12.518-5.033 2.886-11.457 1.139-14.35-3.9s-1.158-11.464 3.875-14.35c4.44-2.546 9.959-1.482 13.185 2.262l15.024-8.614c-.976-2.215-1.528-4.659-1.528-7.233 0-2.557.542-4.985 1.505-7.188l-14.94-8.644c-3.24 3.732-8.764 4.774-13.194 2.211-5.021-2.905-6.731-9.336-3.819-14.365 2.912-5.028 9.344-6.749 14.365-3.844 4.43 2.563 6.277 7.869 4.653 12.536l14.947 8.648c2.912-3.948 7.387-6.672 12.525-7.238v-17.242c-5.003-.933-8.506-5.189-8.506-10.305 0-5.799 4.706-10.5 10.508-10.5s10.507 4.701 10.507 10.5c0 5.116-3.504 9.372-8.506 10.305v17.242c5.163.569 9.657 3.316 12.567 7.294l14.98-8.589c-1.606-4.673.262-9.972 4.702-12.518 5.033-2.886 11.457-1.139 14.35 3.9 2.893 5.04 1.158 11.464-3.875 14.35-4.44 2.546-9.959 1.482-13.185-2.262l-14.972 8.584c.946 2.186 1.475 4.593 1.475 7.125 0 2.6-.564 5.064-1.558 7.296l14.993 8.674c3.24-3.732 8.764-4.774 13.194-2.211 5.024 2.905 6.734 9.336 3.822 14.364z" fill="#444444"/></g></svg>