<?xml version="1.0" encoding="utf-8"?><!-- Generator: Adobe Illustrator 22.0.1, SVG Export Plug-In . SVG Version: 6.00 Build 0)  --><svg enable-background="new 0 0 128 128" viewBox="0 0 128 128" xmlns="http://www.w3.org/2000/svg"><g><path d="m64 0c-35.3 0-64 28.7-64 64s28.7 64 64 64 64-28.7 64-64-28.7-64-64-64zm-41.4 35.8c.1-1.3 1.7-1.9 2.7-.9l5.8 5.8 7.5-2 2-7.5-5.8-5.8c-.9-.9-.4-2.5.9-2.7 4.4-.5 8.9.9 12.2 4.2 3.2 3.2 4.6 7.6 4.3 11.8-.2 2.3.5 4.5 2.1 6.1l6.1 6.1-9.7 9.6-5.7-5.9c-1.7-1.7-4-2.6-6.3-2.4-4.2.4-8.6-1-11.8-4.3-3.4-3.3-4.8-7.8-4.3-12.1zm77.8 67.1c-2.7 2.8-7.2 2.8-9.9 0l-19.5-19.7 9.7-10.2 19.7 19.9c2.8 2.8 2.8 7.3 0 10zm1.9-64.4c-2.3-.8-5-.4-7 1.1-.3.1-.5.3-.8.5 0 0-.1 0-.1.1l-26.8 27.3 5.8 5.8-3 3c-2.2-1.1-4.9-.7-6.7 1.2-1.1 1.1-1.7 2.6-1.7 4.2 0 .9.2 1.8.6 2.6l-18.3 18.5c-2.3 2.3-6 2.3-8.3 0l-5.6-5.6c-2.3-2.3-2.3-6.1 0-8.4l18.3-18.5c2.2 1 5 .6 6.7-1.2 1.8-1.8 2.2-4.6 1.2-6.8l3-3 4.6 4.6 26.9-27.2c1.4-1.4 2.2-3.4 2.2-5.4 0-.9-.2-1.7-.5-2.5l10.2-5.2 4.6 4.6zm-50.9 41.1-14.8 14.8c-.4.4-.9.6-1.5.6-.5 0-1.1-.2-1.5-.6-.8-.8-.8-2.1 0-3l14.8-14.8c.4-.4.9-.6 1.5-.6.5 0 1.1.2 1.5.6.8.8.8 2.2 0 3zm4.5 2c.8.8.8 2.1 0 3l-14.8 14.8c-.4.4-.9.6-1.5.6-.5 0-1.1-.2-1.5-.6-.8-.8-.8-2.1 0-3l14.8-14.8c.4-.4.9-.6 1.5-.6.5 0 1.1.2 1.5.6zm41.1 12.9c1.4 1.4 1.4 3.6 0 4.9-1.4 1.4-3.6 1.4-5 0s-1.4-3.6 0-4.9 3.6-1.3 5 0z" fill="#444444"/></g></svg>