<svg xmlns="http://www.w3.org/2000/svg" width="180.01" height="20.001" viewBox="-81.835 0 180.01 20.001" enable-background="new -81.835 0 180.01 20.001"><title>ic-faceb</title><desc>Created with Sketch.</desc><path fill="#004FB6" d="M-71.84 0c-5.52 0-10 4.47-10 10 0 5.52 4.48 10 10 10 2.86-.02 5.57-1.32 7.4-3.5 1.8-2.22 2.56-5.1 2.05-7.94h-9.44V12h5.68c-.54 2.67-2.97 4.5-5.68 4.32-3.43-.08-6.18-2.9-6.18-6.32 0-3.43 2.75-6.24 6.18-6.32 1.48 0 2.9.53 3.98 1.55l2.72-2.6C-66.94.9-69.36-.04-71.84 0m18.56 5.72h-2.85v2.85H-59v2.86h2.87v2.86h2.86v-2.87h2.85V8.57h-2.85V5.72"/><path fill="#ED412D" d="M76.75 0c-5.52 0-10 4.47-10 10s4.48 10 10 10c2.86-.02 5.57-1.32 7.4-3.5 1.8-2.22 2.56-5.1 2.05-7.94h-9.45V12h5.68c-.54 2.67-2.97 4.5-5.68 4.32-3.43-.08-6.18-2.9-6.18-6.33s2.75-6.24 6.18-6.33c1.48 0 2.9.54 4 1.56l2.7-2.6C81.66.9 79.24-.03 76.76 0M95.3 5.72h-2.84v2.85H89.6v2.86h2.86v2.86h2.86v-2.87h2.85V8.57h-2.85V5.72"/><path fill="#fff" d="M2.46 0c-5.52 0-10 4.47-10 10s4.48 10 10 10c2.85-.02 5.56-1.32 7.4-3.5 1.8-2.22 2.56-5.1 2.05-7.94H2.47V12h5.67c-.53 2.67-2.96 4.5-5.67 4.32-3.43-.08-6.18-2.9-6.18-6.32 0-3.43 2.75-6.24 6.18-6.32 1.48 0 2.9.53 3.98 1.55l2.72-2.6C7.36.9 4.94-.03 2.44 0m18.58 5.72h-2.85v2.85H15.3v2.86h2.87v2.86h2.86v-2.87h2.85V8.57h-2.85V5.72"/></svg>