<svg xmlns="http://www.w3.org/2000/svg" width="180.01" height="20"><title>ic-faceb</title><desc>Created with Sketch.</desc><path fill="#004FB6" d="M24.43 2.37c-.92.4-1.9.68-2.88.8 1.05-.64 1.83-1.63 2.2-2.8-.98.6-2.05 1-3.18 1.22-1.4-1.52-3.6-2.02-5.5-1.23-1.92.73-3.16 2.6-3.16 4.67 0 .4.05.78.13 1.16C8 6 4.23 4.08 1.7.94c-1.34 2.3-.67 5.24 1.55 6.72-.8 0-1.58-.23-2.27-.63v.07c0 2.4 1.67 4.46 4 4.96-.4.1-.85.16-1.3.16-.32 0-.64-.03-.94-.08.64 2.05 2.54 3.45 4.68 3.5-2.1 1.66-4.77 2.4-7.42 2.1 4.4 2.82 10 3.02 14.6.5s7.4-7.37 7.36-12.6c0-.24 0-.46 0-.67.97-.72 1.82-1.58 2.5-2.6h-.03z"/><path fill="#1DA1F2" d="M180 2.37c-.93.4-1.9.68-2.9.8 1.06-.64 1.84-1.63 2.22-2.8-1 .6-2.06 1-3.2 1.22-1.4-1.52-3.6-2-5.5-1.24-1.9.74-3.15 2.62-3.15 4.68 0 .4.04.78.12 1.16-4.05-.2-7.82-2.13-10.35-5.27-1.33 2.3-.66 5.24 1.56 6.72-.78 0-1.58-.23-2.26-.63v.07c0 2.4 1.67 4.46 4 4.96-.4.1-.85.16-1.3.16-.32 0-.64-.03-.94-.08.64 2.05 2.53 3.45 4.68 3.5-2.1 1.66-4.77 2.4-7.42 2.1 4.4 2.82 10 3.03 14.6.5 4.57-2.54 7.4-7.37 7.36-12.6 0-.24 0-.46 0-.67.97-.72 1.8-1.58 2.5-2.6h-.03z"/><path fill="#fff" d="M102.2 2.37c-.9.4-1.9.68-2.88.8 1.06-.64 1.84-1.63 2.22-2.8-1 .6-2.07 1-3.2 1.22-1.4-1.52-3.6-2.02-5.5-1.23-1.9.73-3.15 2.6-3.15 4.67 0 .4.03.78.1 1.16C85.78 6 82 4.07 79.48.93c-1.34 2.3-.66 5.24 1.56 6.72-.8 0-1.6-.23-2.27-.63v.07c0 2.4 1.67 4.46 4 4.95-.4.1-.85.17-1.3.17-.33 0-.64-.03-.94-.08.63 2.05 2.53 3.45 4.68 3.5-2.1 1.66-4.77 2.4-7.42 2.1 4.4 2.82 10 3.02 14.6.5 4.57-2.54 7.4-7.37 7.36-12.6 0-.24 0-.46 0-.67.97-.72 1.8-1.58 2.5-2.6h-.03z"/></svg>