<svg xmlns="http://www.w3.org/2000/svg" width="180.01" height="20"><title>ic-faceb</title><desc>Created with Sketch.</desc><path fill="#004FB6" d="M28.16 4.3s-.28-1.94-1.13-2.8C25.93.35 24.73.34 24.18.3 20.2 0 14.2 0 14.2 0S8.24 0 4.26.3C3.72.34 2.5.35 1.42 1.5.57 2.34.3 4.3.3 4.3S0 6.63 0 8.93v2.15c0 2.3.28 4.6.28 4.6s.28 1.97 1.13 2.83c1.1 1.14 2.53 1.1 3.16 1.23 2.28.22 9.67.28 9.67.28s5.97 0 9.96-.3c.54-.05 1.75-.06 2.84-1.2.85-.85 1.13-2.8 1.13-2.8s.28-2.3.28-4.6V8.9c0-2.3-.28-4.6-.28-4.6zm-16.88 9.4v-8l7.7 4-7.7 4z"/><path fill="#E52D27" d="M179.73 4.33s-.27-1.97-1.14-2.84C177.5.34 176.3.33 175.72.26 171.78 0 165.8 0 165.8 0s-5.96 0-9.95.28c-.55.07-1.75.07-2.85 1.2-.84.9-1.12 2.85-1.12 2.85s-.3 2.3-.3 4.6v2.16c0 2.3.3 4.6.3 4.6s.28 1.95 1.12 2.8c1.1 1.13 2.52 1.1 3.15 1.2 2.26.22 9.65.3 9.65.3s5.98 0 9.97-.3c.54-.06 1.75-.06 2.84-1.2.87-.85 1.14-2.8 1.14-2.8s.28-2.3.28-4.6V8.92c0-2.3-.27-4.6-.27-4.6h-.02zm-16.86 9.36v-8l7.68 4-7.68 3.98z"/><path fill="#fff" d="M103.94 4.32s-.27-1.96-1.13-2.83C101.75.34 100.54.34 99.98.3 95.97 0 90 0 90 0s-5.97 0-9.95.3c-.56.06-1.77.06-2.85 1.2-.85.86-1.13 2.82-1.13 2.82s-.28 2.3-.28 4.6v2.16c0 2.3.26 4.6.26 4.6s.28 1.96 1.13 2.82c1.07 1.14 2.5 1.1 3.13 1.22C82.6 19.94 90 20 90 20s5.98 0 9.96-.3c.56-.06 1.77-.07 2.85-1.2.88-.86 1.15-2.82 1.15-2.82s.3-2.3.3-4.6V8.9c-.02-2.3-.3-4.6-.3-4.6v.02zM87.07 13.7v-8l7.68 4-7.68 4zM11.24 13.7v-8l7.7 4zM162.85 13.7v-8l7.7 4z"/></svg>